<svg width="42" height="42" viewBox="0 0 42 42" fill="none" xmlns="http://www.w3.org/2000/svg">
<g id="account-svgrepo-com 1" clip-path="url(#clip0_1_1007)">
<g id="Shopicon">
<path id="Vector" d="M29.6126 23.5497L21 31.5L12.3874 23.5497C7.58975 26.6184 4.375 32.1554 4.375 38.5H37.625C37.625 32.1554 34.4103 26.6184 29.6126 23.5497Z" fill="#00C2FF"/>
<path id="Vector_2" d="M21 24.5C24.1062 24.5 26.8879 23.1438 28.8102 21C30.4771 19.1415 31.5 16.6933 31.5 14C31.5 8.20138 26.7986 3.5 21 3.5C15.2014 3.5 10.5 8.20138 10.5 14C10.5 16.6933 11.5229 19.1415 13.1898 21C15.1121 23.1438 17.8938 24.5 21 24.5Z" fill="#00C2FF"/>
</g>
</g>
<defs>
<clipPath id="clip0_1_1007">
<rect width="42" height="42" fill="white"/>
</clipPath>
</defs>
</svg>
