<svg width="32" height="32" viewBox="0 0 32 32" fill="none" xmlns="http://www.w3.org/2000/svg">
<g id="bike_del 1" clip-path="url(#clip0_81_667)">
<path id="Vector" d="M14.6667 23.9999C14.6667 24.7363 15.2636 25.3333 16 25.3333C16.7364 25.3333 17.3333 24.7363 17.3333 23.9999H14.6667ZM16 17.3333H17.3333C17.3333 16.9797 17.1928 16.6405 16.9428 16.3905L16 17.3333ZM11.3333 12.6666L10.4553 11.6631C10.1776 11.9062 10.013 12.2534 10.0007 12.6222C9.98845 12.991 10.1296 13.3485 10.3905 13.6094L11.3333 12.6666ZM16.6667 7.99992L17.6791 7.1322C17.4473 6.86192 17.1172 6.69551 16.7621 6.67001C16.4071 6.64452 16.0565 6.76207 15.7887 6.99648L16.6667 7.99992ZM24.6667 14.6666C25.4031 14.6666 26 14.0697 26 13.3333C26 12.5969 25.4031 11.9999 24.6667 11.9999V14.6666ZM10.6667 22.6666C10.6667 24.8758 8.8758 26.6666 6.66667 26.6666V29.3333C10.3486 29.3333 13.3333 26.3485 13.3333 22.6666H10.6667ZM6.66667 26.6666C4.45753 26.6666 2.66667 24.8758 2.66667 22.6666H0C0 26.3485 2.98477 29.3333 6.66667 29.3333V26.6666ZM2.66667 22.6666C2.66667 20.4574 4.45753 18.6666 6.66667 18.6666V15.9999C2.98477 15.9999 0 18.9847 0 22.6666H2.66667ZM6.66667 18.6666C8.8758 18.6666 10.6667 20.4574 10.6667 22.6666H13.3333C13.3333 18.9847 10.3486 15.9999 6.66667 15.9999V18.6666ZM17.3333 23.9999V17.3333H14.6667V23.9999H17.3333ZM16.9428 16.3905L12.2761 11.7238L10.3905 13.6094L15.0572 18.2761L16.9428 16.3905ZM12.2113 13.6701L17.5447 9.00336L15.7887 6.99648L10.4553 11.6631L12.2113 13.6701ZM15.6543 8.86764C16.3392 9.66671 17.6043 11.0758 19.1372 12.2938C20.6225 13.4741 22.5936 14.6666 24.6667 14.6666V11.9999C23.5397 11.9999 22.1775 11.3036 20.7961 10.206C19.4624 9.14627 18.3275 7.88868 17.6791 7.1322L15.6543 8.86764ZM29.3333 22.6666C29.3333 24.8758 27.5425 26.6666 25.3333 26.6666V29.3333C29.0152 29.3333 32 26.3485 32 22.6666H29.3333ZM25.3333 26.6666C23.1241 26.6666 21.3333 24.8758 21.3333 22.6666H18.6667C18.6667 26.3485 21.6515 29.3333 25.3333 29.3333V26.6666ZM21.3333 22.6666C21.3333 20.4574 23.1241 18.6666 25.3333 18.6666V15.9999C21.6515 15.9999 18.6667 18.9847 18.6667 22.6666H21.3333ZM25.3333 18.6666C27.5425 18.6666 29.3333 20.4574 29.3333 22.6666H32C32 18.9847 29.0152 15.9999 25.3333 15.9999V18.6666ZM21.3333 3.99992V6.66659C22.8061 6.66659 24 5.47268 24 3.99992H21.3333ZM21.3333 3.99992H18.6667C18.6667 5.47268 19.8605 6.66659 21.3333 6.66659V3.99992ZM21.3333 3.99992V1.33325C19.8605 1.33325 18.6667 2.52716 18.6667 3.99992H21.3333ZM21.3333 3.99992H24C24 2.52716 22.8061 1.33325 21.3333 1.33325V3.99992Z" fill="#3F3F3F"/>
<rect id="Rectangle 295" x="4" y="6.09375" width="9.33333" height="6.66667" rx="1" transform="rotate(-40.7591 4 6.09375)" fill="#3F3F3F"/>
</g>
<defs>
<clipPath id="clip0_81_667">
<rect width="32" height="32" fill="white"/>
</clipPath>
</defs>
</svg>
