<svg width="41" height="41" viewBox="0 0 41 41" fill="none" xmlns="http://www.w3.org/2000/svg">
<g id="cart_icn">
<path id="Vector" d="M6.83333 1.28125H1.70833C0.764846 1.28125 0 2.04611 0 2.98958V3.84375C0 4.78723 0.764846 5.55208 1.70833 5.55208H5.14533L9.79944 25.1658C10.5621 28.3797 13.3944 30.6659 16.6814 30.7478V30.75H30.0451C33.3743 30.75 36.2191 28.3508 36.7806 25.0693L38.9256 12.5346C39.2826 10.4477 37.6751 8.54167 35.5578 8.54167H10.2441L8.91106 2.92364C8.68262 1.96094 7.82277 1.28125 6.83333 1.28125Z" fill="#00C2FF"/>
<path id="Vector_2" d="M17.0833 35.875C17.0833 37.762 15.5536 39.2917 13.6667 39.2917C11.7797 39.2917 10.25 37.762 10.25 35.875C10.25 33.988 11.7797 32.4583 13.6667 32.4583C15.5536 32.4583 17.0833 33.988 17.0833 35.875Z" fill="#00C2FF"/>
<path id="Vector_3" d="M35.8748 35.875C35.8748 37.762 34.3452 39.2917 32.4582 39.2917C30.5711 39.2917 29.0415 37.762 29.0415 35.875C29.0415 33.988 30.5711 32.4583 32.4582 32.4583C34.3452 32.4583 35.8748 33.988 35.8748 35.875Z" fill="#00C2FF"/>
</g>
</svg>
