<svg width="41" height="41" viewBox="0 0 54 54" fill="none" xmlns="http://www.w3.org/2000/svg">
<g id="dashboard_icn">
<path id="Vector" d="M33.804 49.5C36.6235 49.5 39.0429 49.352 41.0643 48.9026C43.1116 48.4477 44.8862 47.6545 46.2703 46.2703C47.6545 44.8862 48.4477 43.1116 48.9026 41.0643C49.352 39.0429 49.5 36.6235 49.5 33.804V27C49.5 24.5147 47.4853 22.5 45 22.5H27C24.5147 22.5 22.5 24.5147 22.5 27V45C22.5 47.4853 24.5147 49.5 27 49.5H33.804Z" fill="black"/>
<path id="Vector_2" d="M4.5 33.804C4.5 36.6235 4.64814 39.0429 5.09742 41.0643C5.55237 43.1116 6.34547 44.8861 7.72972 46.2703C9.11396 47.6545 10.8885 48.4477 12.9356 48.9026C13.1316 48.946 13.3287 48.987 13.5265 49.0252C15.9667 49.4966 18 47.4313 18 44.946V27C18 24.5146 15.9853 22.5 13.5 22.5H9C6.51472 22.5 4.5 24.5146 4.5 27V33.804Z" fill="black"/>
<path id="Vector_3" d="M20.1958 4.5C17.3763 4.5 14.957 4.64814 12.9354 5.09742C10.8883 5.55237 9.11378 6.34547 7.72953 7.72972C6.34529 9.11396 5.55218 10.8885 5.09723 12.9356C5.05988 13.1037 5.02474 13.2723 4.99173 13.4415C4.50938 15.9135 6.61241 18 9.13106 18H44.9459C47.4312 18 49.4965 15.9667 49.0251 13.5265C48.9869 13.3287 48.9459 13.1316 48.9025 12.9356C48.4473 10.8885 47.6544 9.11396 46.27 7.72972C44.8858 6.34547 43.1112 5.55237 41.0642 5.09742C39.0426 4.64814 36.6234 4.5 33.8039 4.5H20.1958Z" fill="black"/>
</g>
</svg>
