<svg width="41" height="41" viewBox="0 0 45 45" fill="none" xmlns="http://www.w3.org/2000/svg">
<g id="dashboard_icn">
<path id="Vector" d="M28.17 41.25C30.5196 41.25 32.5357 41.1266 34.2202 40.7522C35.9263 40.3731 37.4051 39.7121 38.5586 38.5586C39.7121 37.4051 40.3731 35.9263 40.7522 34.2202C41.1266 32.5357 41.25 30.5196 41.25 28.17V22.5C41.25 20.4289 39.5711 18.75 37.5 18.75H22.5C20.4289 18.75 18.75 20.4289 18.75 22.5V37.5C18.75 39.5711 20.4289 41.25 22.5 41.25H28.17Z" fill="#00C2FF"/>
<path id="Vector_2" d="M3.75 28.17C3.75 30.5196 3.87345 32.5357 4.24785 34.2202C4.62698 35.9263 5.28789 37.4051 6.44143 38.5586C7.59497 39.7121 9.07374 40.3731 10.7797 40.7522C10.943 40.7884 11.1072 40.8225 11.2721 40.8544C13.3055 41.2472 15 39.5261 15 37.455V22.5C15 20.4289 13.3211 18.75 11.25 18.75H7.5C5.42893 18.75 3.75 20.4289 3.75 22.5V28.17Z" fill="#00C2FF"/>
<path id="Vector_3" d="M16.8299 3.75C14.4803 3.75 12.4642 3.87345 10.7796 4.24785C9.07367 4.62698 7.59489 5.28789 6.44136 6.44143C5.28782 7.59497 4.6269 9.07374 4.24778 10.7797C4.21665 10.9197 4.18736 11.0603 4.15986 11.2012C3.7579 13.2613 5.51042 15 7.60929 15H37.455C39.5261 15 41.2472 13.3055 40.8544 11.2721C40.8225 11.1072 40.7884 10.943 40.7522 10.7797C40.3729 9.07374 39.7121 7.59497 38.5584 6.44143C37.4049 5.28789 35.9261 4.62698 34.2202 4.24785C32.5355 3.87345 30.5195 3.75 28.17 3.75H16.8299Z" fill="#00C2FF"/>
</g>
</svg>
