<svg width="32" height="32" viewBox="0 0 32 32" fill="none" xmlns="http://www.w3.org/2000/svg">
<g id="full-screen-svgrepo-com 1" clip-path="url(#clip0_1_43)">
<path id="Vector" d="M31.728 31.291C31.628 31.535 31.434 31.729 31.19 31.83C31.069 31.881 30.94 31.907 30.811 31.907H23.851C23.301 31.907 22.856 31.461 22.856 30.91C22.856 30.359 23.301 29.913 23.851 29.913L28.405 29.908L19.171 20.646C18.782 20.257 18.782 19.626 19.171 19.236C19.559 18.847 20.188 18.847 20.577 19.236L29.906 28.593V23.906C29.906 23.355 30.261 22.933 30.811 22.933C31.36 22.933 31.805 23.379 31.805 23.93V30.91C31.805 31.04 31.779 31.169 31.728 31.291ZM30.811 8.97299C30.261 8.97299 29.906 8.45699 29.906 7.90599V3.31299L20.577 12.669C20.382 12.864 20.128 12.962 19.874 12.962C19.619 12.962 19.365 12.864 19.171 12.669C18.782 12.28 18.782 11.649 19.171 11.259L28.497 1.90599H23.906C23.356 1.90599 22.856 1.54599 22.856 0.995993C22.856 0.444993 23.301 -0.00100708 23.851 -0.00100708H30.811C30.94 -0.00100708 31.069 0.0249929 31.19 0.0759929C31.434 0.176993 31.628 0.370993 31.728 0.614993C31.779 0.736993 31.805 0.865993 31.805 0.995993V7.97599C31.805 8.52599 31.36 8.97299 30.811 8.97299ZM3.38701 29.908L7.94201 29.913C8.49201 29.913 8.93601 30.359 8.93601 30.91C8.93601 31.461 8.49201 31.907 7.94201 31.907H0.982007C0.853007 31.907 0.724007 31.881 0.602007 31.83C0.359007 31.729 0.165007 31.535 0.0640066 31.291C0.0140066 31.169 -0.0119934 31.04 -0.0119934 30.91V23.93C-0.0119934 23.379 0.433007 22.933 0.982007 22.933C1.53201 22.933 1.90601 23.355 1.90601 23.906V28.573L11.216 19.236C11.605 18.847 12.234 18.847 12.622 19.236C13.011 19.626 13.011 20.257 12.622 20.646L3.38701 29.908ZM11.919 12.962C11.665 12.962 11.41 12.864 11.216 12.669L1.90601 3.33199V7.90599C1.90601 8.45699 1.53201 8.97299 0.982007 8.97299C0.433007 8.97299 -0.0119934 8.52599 -0.0119934 7.97599V0.995993C-0.0119934 0.865993 0.0140066 0.736993 0.0640066 0.614993C0.165007 0.370993 0.359007 0.176993 0.602007 0.0759929C0.723007 0.0249929 0.852007 -0.00100708 0.980007 -0.00100708C0.981007 -0.00100708 0.981007 -0.00100708 0.982007 -0.00100708H7.94201C8.49201 -0.00100708 8.93601 0.444993 8.93601 0.995993C8.93601 1.54599 8.45601 1.90599 7.90601 1.90599H3.29601L12.622 11.259C13.011 11.649 13.011 12.28 12.622 12.669C12.428 12.864 12.174 12.962 11.919 12.962Z" fill="#A031E4"/>
</g>
<defs>
<clipPath id="clip0_1_43">
<rect width="31.812" height="31.906" fill="white"/>
</clipPath>
</defs>
</svg>
