<svg width="231" height="71" viewBox="0 0 231 71" fill="none" xmlns="http://www.w3.org/2000/svg">
<g id="Logo">
<g id="Vector">
<path d="M24.0255 9.04603C20.7183 9.04603 18.1569 9.9863 16.3412 11.8668C14.5904 13.6825 13.488 16.633 13.0341 20.7183C13.0341 21.2371 13.2934 21.4965 13.8122 21.4965H32.877C33.3957 21.4965 33.6551 21.2371 33.6551 20.7183C33.3957 12.9368 30.1858 9.04603 24.0255 9.04603ZM26.4572 52.5253C17.9624 52.5253 11.4129 50.3205 6.80884 45.911C2.26961 41.4366 0 34.8872 0 26.2627C0 17.703 2.04265 11.1859 6.12795 6.71157C10.2133 2.23719 16.1142 0 23.8309 0C38.2268 0 45.6192 8.1706 46.0083 24.5118C46.0731 26.0681 45.5219 27.365 44.3547 28.4026C43.1875 29.4401 41.8257 29.9589 40.2694 29.9589H13.7149C13.1313 29.9589 12.9044 30.2507 13.0341 30.8343C13.488 35.179 14.9146 38.3564 17.3139 40.3667C19.7781 42.3121 23.3446 43.2848 28.0135 43.2848C30.9316 43.2848 34.1739 42.7984 37.7404 41.8257C38.9076 41.5015 39.9776 41.696 40.9503 42.4093C41.9878 43.1226 42.5066 44.0953 42.5066 45.3274C42.5066 46.8189 42.0527 48.1482 41.1448 49.3154C40.3018 50.4178 39.167 51.0987 37.7404 51.3581C34.109 52.1362 30.348 52.5253 26.4572 52.5253Z" fill="#00C2FF"/>
<path d="M56.3614 46.446L51.3155 32.494C51.1939 32.0887 51.2446 31.7239 51.4675 31.3997C51.6904 31.0552 52.0147 30.8829 52.4402 30.8829H53.3521C53.8587 30.8829 54.3248 31.0451 54.7503 31.3693C55.1759 31.6733 55.4495 32.0684 55.5711 32.5548L58.3979 42.4944C58.3979 42.5147 58.4081 42.5248 58.4283 42.5248C58.4486 42.5248 58.4587 42.5147 58.4587 42.4944L61.7112 32.5244C61.8733 32.038 62.1671 31.6429 62.5927 31.3389C63.0182 31.0349 63.4843 30.8829 63.9909 30.8829H64.7204C65.146 30.8829 65.4702 31.0552 65.6931 31.3997C65.9363 31.7442 65.9768 32.1089 65.8147 32.494L58.3979 51.7654C58.2156 52.2517 57.9116 52.6368 57.486 52.9205C57.0605 53.2244 56.5843 53.3764 56.0574 53.3764H55.3279C54.9226 53.3764 54.5984 53.2042 54.3552 52.8597C54.1323 52.5354 54.1019 52.1808 54.264 51.7958L56.3614 46.9323C56.4019 46.8513 56.4222 46.7702 56.4222 46.6892C56.4222 46.6081 56.4019 46.5271 56.3614 46.446Z" fill="#00C2FF"/>
<path d="M74.3759 33.4059C73.3424 33.4059 72.5419 33.6997 71.9745 34.2874C71.4274 34.8548 71.0829 35.7768 70.941 37.0534C70.941 37.2156 71.0221 37.2966 71.1842 37.2966H77.142C77.3041 37.2966 77.3851 37.2156 77.3851 37.0534C77.3041 34.6217 76.301 33.4059 74.3759 33.4059ZM75.1358 46.9931C72.4811 46.9931 70.4344 46.3041 68.9957 44.9262C67.5772 43.5279 66.8679 41.4812 66.8679 38.7861C66.8679 36.1112 67.5062 34.0746 68.7829 32.6763C70.0595 31.2781 71.9036 30.579 74.3151 30.579C78.8138 30.579 81.1239 33.1323 81.2455 38.2389C81.2658 38.7253 81.0935 39.1305 80.7287 39.4548C80.364 39.779 79.9384 39.9411 79.4521 39.9411H71.1538C70.9714 39.9411 70.9005 40.0323 70.941 40.2147C71.0829 41.5724 71.5287 42.5654 72.2785 43.1936C73.0485 43.8015 74.1631 44.1055 75.6221 44.1055C76.534 44.1055 77.5472 43.9535 78.6618 43.6495C79.0265 43.5482 79.3609 43.609 79.6649 43.8319C79.9891 44.0548 80.1512 44.3588 80.1512 44.7438C80.1512 45.2099 80.0094 45.6253 79.7257 45.99C79.4622 46.3345 79.1076 46.5473 78.6618 46.6284C77.527 46.8715 76.3516 46.9931 75.1358 46.9931Z" fill="#00C2FF"/>
<path d="M102.465 34.8041C101.877 33.953 100.985 33.5274 99.7898 33.5274C98.5942 33.5274 97.6924 33.953 97.0845 34.8041C96.4968 35.6349 96.203 36.9623 96.203 38.7861C96.203 40.6099 96.4968 41.9473 97.0845 42.7984C97.6924 43.6292 98.5942 44.0447 99.7898 44.0447C100.985 44.0447 101.877 43.6292 102.465 42.7984C103.073 41.9473 103.377 40.6099 103.377 38.7861C103.377 36.9623 103.073 35.6349 102.465 34.8041ZM105.444 44.8654C104.106 46.2839 102.222 46.9931 99.7898 46.9931C97.3581 46.9931 95.4633 46.2839 94.1056 44.8654C92.7682 43.4266 92.0994 41.4002 92.0994 38.7861C92.0994 36.1719 92.7682 34.1556 94.1056 32.7371C95.4633 31.2984 97.3581 30.579 99.7898 30.579C102.222 30.579 104.106 31.2984 105.444 32.7371C106.801 34.1556 107.48 36.1719 107.48 38.7861C107.48 41.4002 106.801 43.4266 105.444 44.8654Z" fill="#00C2FF"/>
<path d="M112.35 46.6892C111.884 46.6892 111.479 46.5169 111.134 46.1724C110.79 45.8279 110.618 45.4226 110.618 44.9566V32.6155C110.618 32.1495 110.79 31.7442 111.134 31.3997C111.479 31.0552 111.884 30.8829 112.35 30.8829H112.958C113.424 30.8829 113.83 31.0552 114.174 31.3997C114.519 31.7442 114.691 32.1495 114.691 32.6155V33.8922C114.691 33.9125 114.701 33.9226 114.721 33.9226C114.762 33.9226 114.782 33.9125 114.782 33.8922C115.37 33.0816 116.14 32.423 117.092 31.9164C118.045 31.3896 119.088 31.0653 120.223 30.9437C120.649 30.9032 121.013 31.0451 121.317 31.3693C121.621 31.6733 121.773 32.038 121.773 32.4636C121.773 32.8891 121.621 33.2539 121.317 33.5578C121.013 33.8618 120.649 34.0341 120.223 34.0746C116.636 34.3583 114.843 36.1821 114.843 39.546V44.9566C114.843 45.4226 114.671 45.8279 114.326 46.1724C113.982 46.5169 113.576 46.6892 113.11 46.6892H112.35Z" fill="#00C2FF"/>
<path d="M131.373 33.6186C129.043 33.6186 127.877 35.3411 127.877 38.7861C127.877 40.5085 128.192 41.8054 128.82 42.6768C129.448 43.5279 130.299 43.9535 131.373 43.9535C132.325 43.9535 133.146 43.6394 133.835 43.0112C134.524 42.383 134.869 41.6636 134.869 40.853V36.7191C134.869 35.9085 134.524 35.1891 133.835 34.5609C133.146 33.9327 132.325 33.6186 131.373 33.6186ZM130.157 46.9931C128.354 46.9931 126.854 46.2636 125.658 44.8046C124.463 43.3253 123.865 41.3191 123.865 38.7861C123.865 36.1719 124.432 34.1556 125.567 32.7371C126.722 31.2984 128.252 30.579 130.157 30.579C131.88 30.579 133.399 31.2072 134.717 32.4636C134.737 32.4838 134.757 32.494 134.777 32.494C134.798 32.494 134.808 32.4838 134.808 32.4636V25.6243C134.808 25.1582 134.98 24.753 135.325 24.4085C135.669 24.064 136.074 23.8917 136.54 23.8917H137.148C137.614 23.8917 138.02 24.064 138.364 24.4085C138.709 24.753 138.881 25.1582 138.881 25.6243V44.9566C138.881 45.4226 138.709 45.8279 138.364 46.1724C138.02 46.5169 137.614 46.6892 137.148 46.6892H136.814C136.328 46.6892 135.912 46.5271 135.568 46.2028C135.244 45.8583 135.071 45.4429 135.051 44.9566L135.021 44.7438C135.021 44.7235 135.01 44.7134 134.99 44.7134C134.97 44.7134 134.95 44.7235 134.929 44.7438C133.592 46.2434 132.001 46.9931 130.157 46.9931Z" fill="#00C2FF"/>
<path d="M149.685 33.4059C148.651 33.4059 147.851 33.6997 147.283 34.2874C146.736 34.8548 146.392 35.7768 146.25 37.0534C146.25 37.2156 146.331 37.2966 146.493 37.2966H152.451C152.613 37.2966 152.694 37.2156 152.694 37.0534C152.613 34.6217 151.61 33.4059 149.685 33.4059ZM150.445 46.9931C147.79 46.9931 145.743 46.3041 144.304 44.9262C142.886 43.5279 142.177 41.4812 142.177 38.7861C142.177 36.1112 142.815 34.0746 144.092 32.6763C145.368 31.2781 147.212 30.579 149.624 30.579C154.123 30.579 156.433 33.1323 156.554 38.2389C156.575 38.7253 156.402 39.1305 156.038 39.4548C155.673 39.779 155.247 39.9411 154.761 39.9411H146.463C146.28 39.9411 146.209 40.0323 146.25 40.2147C146.392 41.5724 146.837 42.5654 147.587 43.1936C148.357 43.8015 149.472 44.1055 150.931 44.1055C151.843 44.1055 152.856 43.9535 153.971 43.6495C154.335 43.5482 154.67 43.609 154.974 43.8319C155.298 44.0548 155.46 44.3588 155.46 44.7438C155.46 45.2099 155.318 45.6253 155.034 45.99C154.771 46.3345 154.416 46.5473 153.971 46.6284C152.836 46.8715 151.66 46.9931 150.445 46.9931Z" fill="#00C2FF"/>
<path d="M161.567 46.6892C161.101 46.6892 160.695 46.5169 160.351 46.1724C160.006 45.8279 159.834 45.4226 159.834 44.9566V32.6155C159.834 32.1495 160.006 31.7442 160.351 31.3997C160.695 31.0552 161.101 30.8829 161.567 30.8829H162.175C162.641 30.8829 163.046 31.0552 163.39 31.3997C163.735 31.7442 163.907 32.1495 163.907 32.6155V33.8922C163.907 33.9125 163.917 33.9226 163.938 33.9226C163.978 33.9226 163.998 33.9125 163.998 33.8922C164.586 33.0816 165.356 32.423 166.308 31.9164C167.261 31.3896 168.305 31.0653 169.439 30.9437C169.865 30.9032 170.23 31.0451 170.534 31.3693C170.838 31.6733 170.99 32.038 170.99 32.4636C170.99 32.8891 170.838 33.2539 170.534 33.5578C170.23 33.8618 169.865 34.0341 169.439 34.0746C165.853 34.3583 164.059 36.1821 164.059 39.546V44.9566C164.059 45.4226 163.887 45.8279 163.542 46.1724C163.198 46.5169 162.793 46.6892 162.327 46.6892H161.567Z" fill="#00C2FF"/>
<path d="M179.434 40.3059C177.307 39.8398 175.787 39.2015 174.875 38.3909C173.983 37.5803 173.537 36.5266 173.537 35.2297C173.537 33.7706 174.074 32.6358 175.148 31.8252C176.243 30.9944 177.854 30.579 179.981 30.579C181.319 30.579 182.646 30.7006 183.963 30.9437C184.409 31.0248 184.764 31.2477 185.027 31.6125C185.311 31.957 185.453 32.3622 185.453 32.8283C185.453 33.2133 185.301 33.5274 184.997 33.7706C184.693 33.9935 184.348 34.0543 183.963 33.953C182.829 33.6693 181.633 33.5274 180.377 33.5274C178.553 33.5274 177.641 34.0341 177.641 35.0473C177.641 35.5336 177.813 35.9389 178.158 36.2631C178.502 36.5874 179.09 36.8407 179.921 37.0231C182.251 37.4891 183.842 38.1173 184.693 38.9076C185.564 39.698 186 40.853 186 42.3729C186 43.8319 185.453 44.9667 184.359 45.7773C183.264 46.5878 181.674 46.9931 179.586 46.9931C178.229 46.9931 176.84 46.831 175.422 46.5068C174.976 46.4055 174.611 46.1724 174.328 45.8077C174.044 45.4226 173.902 44.987 173.902 44.5006C173.902 44.1156 174.054 43.8218 174.358 43.6191C174.682 43.4165 175.027 43.3658 175.392 43.4671C176.709 43.8319 177.955 44.0143 179.13 44.0143C180.974 44.0143 181.896 43.4671 181.896 42.3729C181.896 41.846 181.714 41.4306 181.349 41.1266C181.005 40.8226 180.366 40.5491 179.434 40.3059Z" fill="#00C2FF"/>
</g>
<g id="P a r t n e r">
<path d="M143.299 60.984V64.84C143.299 64.9147 143.344 64.9627 143.432 64.984C143.855 65.0373 144.266 65.064 144.665 65.064C145.565 65.064 146.248 64.8773 146.715 64.504C147.192 64.12 147.431 63.576 147.431 62.872C147.431 61.4533 146.509 60.744 144.665 60.744C144.266 60.744 143.855 60.7707 143.432 60.824C143.344 60.8453 143.299 60.8987 143.299 60.984ZM141.933 70.84C141.678 70.84 141.455 70.7493 141.267 70.568C141.089 70.3867 141 70.1733 141 69.928V60.152C141 59.896 141.089 59.6667 141.267 59.464C141.444 59.2613 141.666 59.1493 141.933 59.128C142.877 59.0427 143.788 59 144.665 59C146.331 59 147.581 59.32 148.414 59.96C149.247 60.5893 149.664 61.5067 149.664 62.712C149.664 64.0453 149.258 65.0533 148.447 65.736C147.648 66.4187 146.459 66.76 144.882 66.76C144.515 66.76 144.032 66.7387 143.432 66.696C143.344 66.696 143.299 66.7387 143.299 66.824V69.928C143.299 70.1733 143.205 70.3867 143.016 70.568C142.827 70.7493 142.605 70.84 142.35 70.84H141.933Z" fill="#2F71D3"/>
<path d="M160.112 66.84C158.523 66.84 157.729 67.3093 157.729 68.248C157.729 68.5893 157.829 68.8667 158.029 69.08C158.24 69.2933 158.507 69.4 158.829 69.4C159.462 69.4 159.973 69.2133 160.362 68.84C160.75 68.456 160.945 67.9333 160.945 67.272V66.984C160.945 66.888 160.895 66.84 160.795 66.84H160.112ZM158.229 71C157.474 71 156.846 70.7653 156.346 70.296C155.858 69.816 155.613 69.1973 155.613 68.44C155.613 67.512 155.98 66.792 156.713 66.28C157.457 65.768 158.59 65.512 160.112 65.512H160.795C160.895 65.512 160.945 65.464 160.945 65.368V65.24C160.945 64.7493 160.823 64.408 160.578 64.216C160.334 64.0133 159.901 63.912 159.279 63.912C158.634 63.912 157.846 64.024 156.913 64.248C156.713 64.3013 156.53 64.2693 156.363 64.152C156.196 64.024 156.113 63.8587 156.113 63.656C156.113 63.4107 156.191 63.192 156.346 63C156.502 62.7973 156.702 62.6747 156.946 62.632C157.79 62.4507 158.584 62.36 159.329 62.36C160.75 62.36 161.744 62.6053 162.311 63.096C162.877 63.5867 163.161 64.4453 163.161 65.672V69.928C163.161 70.1733 163.066 70.3867 162.877 70.568C162.7 70.7493 162.483 70.84 162.228 70.84H162.044C161.778 70.84 161.55 70.7547 161.361 70.584C161.172 70.4027 161.072 70.184 161.061 69.928V69.704C161.061 69.6933 161.056 69.688 161.045 69.688C161.022 69.688 161.011 69.6933 161.011 69.704C160.334 70.568 159.406 71 158.229 71Z" fill="#2F71D3"/>
<path d="M171.053 70.84C170.798 70.84 170.576 70.7493 170.387 70.568C170.198 70.3867 170.104 70.1733 170.104 69.928V63.432C170.104 63.1867 170.198 62.9733 170.387 62.792C170.576 62.6107 170.798 62.52 171.053 62.52H171.386C171.642 62.52 171.864 62.6107 172.053 62.792C172.242 62.9733 172.336 63.1867 172.336 63.432V64.104C172.336 64.1147 172.342 64.12 172.353 64.12C172.375 64.12 172.386 64.1147 172.386 64.104C172.708 63.6773 173.13 63.3307 173.652 63.064C174.174 62.7867 174.746 62.616 175.368 62.552C175.602 62.5307 175.802 62.6053 175.968 62.776C176.135 62.936 176.218 63.128 176.218 63.352C176.218 63.576 176.135 63.768 175.968 63.928C175.802 64.088 175.602 64.1787 175.368 64.2C173.402 64.3493 172.419 65.3093 172.419 67.08V69.928C172.419 70.1733 172.325 70.3867 172.136 70.568C171.947 70.7493 171.725 70.84 171.47 70.84H171.053Z" fill="#2F71D3"/>
<path d="M183.308 64.392C183.086 64.392 182.897 64.3173 182.741 64.168C182.586 64.008 182.508 63.8213 182.508 63.608C182.508 63.3947 182.586 63.2133 182.741 63.064C182.897 62.9147 183.086 62.84 183.308 62.84H184.107C184.207 62.84 184.257 62.792 184.257 62.696V60.712C184.257 60.4667 184.346 60.2533 184.524 60.072C184.713 59.8907 184.935 59.8 185.19 59.8H185.524C185.779 59.8 186.001 59.8907 186.19 60.072C186.379 60.2533 186.473 60.4667 186.473 60.712V62.696C186.473 62.792 186.523 62.84 186.623 62.84H188.523C188.745 62.84 188.934 62.9147 189.089 63.064C189.256 63.2133 189.339 63.3947 189.339 63.608C189.339 63.8213 189.256 64.008 189.089 64.168C188.934 64.3173 188.745 64.392 188.523 64.392H186.623C186.523 64.392 186.473 64.4347 186.473 64.52V67.752C186.473 68.4453 186.551 68.8933 186.707 69.096C186.862 69.2987 187.184 69.4 187.673 69.4C187.939 69.4 188.139 69.3893 188.273 69.368C188.495 69.3467 188.689 69.3947 188.856 69.512C189.022 69.6293 189.106 69.7893 189.106 69.992C189.106 70.2267 189.022 70.44 188.856 70.632C188.7 70.8133 188.506 70.9147 188.273 70.936C187.784 70.9787 187.417 71 187.173 71C186.096 71 185.34 70.7813 184.907 70.344C184.474 69.896 184.257 69.1013 184.257 67.96V64.52C184.257 64.4347 184.207 64.392 184.107 64.392H183.308Z" fill="#2F71D3"/>
<path d="M197.33 70.84C197.074 70.84 196.852 70.7493 196.663 70.568C196.474 70.3867 196.38 70.1733 196.38 69.928V63.432C196.38 63.1867 196.474 62.9733 196.663 62.792C196.852 62.6107 197.074 62.52 197.33 62.52H197.546C197.813 62.52 198.035 62.6107 198.213 62.792C198.402 62.9627 198.501 63.176 198.513 63.432V63.544C198.513 63.5547 198.518 63.56 198.529 63.56C198.54 63.56 198.551 63.5547 198.563 63.544C199.318 62.7547 200.201 62.36 201.212 62.36C202.222 62.36 202.955 62.6373 203.411 63.192C203.877 63.736 204.111 64.648 204.111 65.928V69.928C204.111 70.1733 204.016 70.3867 203.827 70.568C203.639 70.7493 203.416 70.84 203.161 70.84H202.878C202.622 70.84 202.4 70.7493 202.211 70.568C202.034 70.3867 201.945 70.1733 201.945 69.928V66.088C201.945 65.288 201.834 64.744 201.611 64.456C201.4 64.1573 201.017 64.008 200.462 64.008C200.007 64.008 199.584 64.1947 199.196 64.568C198.807 64.9413 198.613 65.3413 198.613 65.768V69.928C198.613 70.1733 198.518 70.3867 198.329 70.568C198.141 70.7493 197.918 70.84 197.663 70.84H197.33Z" fill="#2F71D3"/>
<path d="M214.588 63.848C214.021 63.848 213.583 64.0027 213.272 64.312C212.972 64.6107 212.783 65.096 212.705 65.768C212.705 65.8533 212.75 65.896 212.838 65.896H216.104C216.193 65.896 216.237 65.8533 216.237 65.768C216.193 64.488 215.643 63.848 214.588 63.848ZM215.004 71C213.549 71 212.428 70.6373 211.639 69.912C210.861 69.176 210.473 68.0987 210.473 66.68C210.473 65.272 210.823 64.2 211.522 63.464C212.222 62.728 213.233 62.36 214.555 62.36C217.02 62.36 218.287 63.704 218.353 66.392C218.364 66.648 218.27 66.8613 218.07 67.032C217.87 67.2027 217.637 67.288 217.37 67.288H212.822C212.722 67.288 212.683 67.336 212.705 67.432C212.783 68.1467 213.027 68.6693 213.438 69C213.86 69.32 214.471 69.48 215.271 69.48C215.771 69.48 216.326 69.4 216.937 69.24C217.137 69.1867 217.32 69.2187 217.487 69.336C217.665 69.4533 217.753 69.6133 217.753 69.816C217.753 70.0613 217.676 70.28 217.52 70.472C217.376 70.6533 217.181 70.7653 216.937 70.808C216.315 70.936 215.671 71 215.004 71Z" fill="#2F71D3"/>
<path d="M225.835 70.84C225.58 70.84 225.358 70.7493 225.169 70.568C224.98 70.3867 224.886 70.1733 224.886 69.928V63.432C224.886 63.1867 224.98 62.9733 225.169 62.792C225.358 62.6107 225.58 62.52 225.835 62.52H226.168C226.424 62.52 226.646 62.6107 226.835 62.792C227.024 62.9733 227.118 63.1867 227.118 63.432V64.104C227.118 64.1147 227.124 64.12 227.135 64.12C227.157 64.12 227.168 64.1147 227.168 64.104C227.49 63.6773 227.912 63.3307 228.434 63.064C228.956 62.7867 229.528 62.616 230.15 62.552C230.384 62.5307 230.583 62.6053 230.75 62.776C230.917 62.936 231 63.128 231 63.352C231 63.576 230.917 63.768 230.75 63.928C230.583 64.088 230.384 64.1787 230.15 64.2C228.184 64.3493 227.201 65.3093 227.201 67.08V69.928C227.201 70.1733 227.107 70.3867 226.918 70.568C226.729 70.7493 226.507 70.84 226.252 70.84H225.835Z" fill="#2F71D3"/>
</g>
</g>
</svg>
