<svg width="39" height="39" viewBox="0 0 39 39" fill="none" xmlns="http://www.w3.org/2000/svg">
<g id="menu-board-svgrepo-com 1">
<path id="Vector" d="M33.9639 16.0063L34.9226 32.0775C34.9551 32.5162 34.7439 32.8088 34.6301 32.9388C34.5001 33.085 34.2239 33.3125 33.7689 33.3125H29.3326L32.8426 16.0063H33.9639ZM35.7514 9.75L35.7351 9.7825C35.7676 10.1725 35.7351 10.5788 35.6376 10.985L23.6614 32.9713C23.2714 34.6125 21.8089 35.75 20.1189 35.75H33.7689C35.8651 35.75 37.5226 33.9788 37.3601 31.8825L35.7514 9.75Z" fill="#00C2FF"/>
<path id="Vector_2" d="M18.6066 3.64222C18.7691 2.99222 18.3628 2.32597 17.7128 2.16347C17.0628 2.01722 16.3966 2.40722 16.2341 3.05722L15.4216 6.42097H17.9241L18.6066 3.64222Z" fill="#00C2FF"/>
<path id="Vector_3" d="M29.3326 3.58896C29.4789 2.92271 29.0564 2.28896 28.3901 2.14271C27.7401 1.99646 27.0901 2.41896 26.9439 3.08521L26.2126 6.44896H28.7151L29.3326 3.58896Z" fill="#00C2FF"/>
<path id="Vector_4" d="M35.4572 8.66353C34.9209 7.36353 33.6534 6.43729 32.0934 6.43729H28.7134L27.8034 10.646C27.6734 11.2148 27.1697 11.6048 26.6172 11.6048C26.5359 11.6048 26.4384 11.6048 26.3572 11.5723C25.7072 11.426 25.2847 10.776 25.4147 10.126L26.2109 6.42104H17.9234L16.8997 10.646C16.7697 11.1985 16.2659 11.5723 15.7133 11.5723C15.6158 11.5723 15.5184 11.556 15.4208 11.5398C14.7709 11.3773 14.3646 10.7273 14.5271 10.061L15.4046 6.40479H12.1058C10.5133 6.40479 9.0996 7.44478 8.62835 8.97228L1.7871 30.991C1.07211 33.3473 2.81085 35.7523 5.2646 35.7523H26.6172C28.3072 35.7523 29.7697 34.6148 30.1597 32.9735L35.6359 10.9873C35.7334 10.581 35.7659 10.1748 35.7334 9.78478C35.7009 9.39478 35.6197 9.00478 35.4572 8.66353ZM23.8872 27.221H10.8871C10.2208 27.221 9.66835 26.6685 9.66835 26.0023C9.66835 25.336 10.2208 24.7835 10.8871 24.7835H23.8872C24.5534 24.7835 25.1059 25.336 25.1059 26.0023C25.1059 26.6685 24.5534 27.221 23.8872 27.221ZM25.5122 20.721H12.5121C11.8458 20.721 11.2933 20.1685 11.2933 19.5023C11.2933 18.836 11.8458 18.2835 12.5121 18.2835H25.5122C26.1784 18.2835 26.7309 18.836 26.7309 19.5023C26.7309 20.1685 26.1784 20.721 25.5122 20.721Z" fill="#00C2FF"/>
</g>
</svg>
