<svg width="50" height="50" viewBox="0 0 50 50" fill="none" xmlns="http://www.w3.org/2000/svg">
<g id="notification-13-svgrepo-com 1">
<path id="Vector" fill-rule="evenodd" clip-rule="evenodd" d="M13.1524 25.9646C12.9168 19.3586 17.937 13.8025 24.3771 13.5417C30.8173 13.8025 35.8375 19.3586 35.6019 25.9646C35.6019 28.7083 38.5085 31.3812 38.5938 34.1312C38.5938 34.1702 38.5938 34.2089 38.5938 34.2479C38.6567 36.0098 37.3175 37.4914 35.5998 37.5604H29.116C29.1221 38.9104 28.6258 40.2121 27.7288 41.2C26.866 42.1608 25.6506 42.7075 24.3771 42.7075C23.1035 42.7075 21.8883 42.1608 21.0256 41.2C20.1284 40.2121 19.6322 38.9104 19.6382 37.5604H13.1524C11.4348 37.4914 10.0955 36.0098 10.1584 34.2479C10.1584 34.2089 10.1584 34.1702 10.1584 34.1312C10.2457 31.3896 13.1524 28.7104 13.1524 25.9646Z" stroke="#0073DD" stroke-width="4" stroke-linecap="round" stroke-linejoin="round"/>
<path id="Vector_2" d="M19.6382 35.9979C18.7752 35.9979 18.0757 36.6975 18.0757 37.5604C18.0757 38.4233 18.7752 39.1229 19.6382 39.1229V35.9979ZM29.116 39.1229C29.979 39.1229 30.6785 38.4233 30.6785 37.5604C30.6785 36.6975 29.979 35.9979 29.116 35.9979V39.1229ZM26.4083 10.9375C27.2712 10.9375 27.9708 10.2379 27.9708 9.375C27.9708 8.51206 27.2712 7.8125 26.4083 7.8125V10.9375ZM22.3458 7.8125C21.4829 7.8125 20.7834 8.51206 20.7834 9.375C20.7834 10.2379 21.4829 10.9375 22.3458 10.9375V7.8125ZM19.6382 39.1229H29.116V35.9979H19.6382V39.1229ZM26.4083 7.8125H22.3458V10.9375H26.4083V7.8125Z" fill="#0073DD"/>
</g>
</svg>
